<svg width="44" height="44" viewBox="0 0 44 44" fill="none" xmlns="http://www.w3.org/2000/svg">
<g id="Group 8">
<rect id="icon" width="44" height="44" rx="10" fill="white"/>
<g id="Icon/ethereum-(eth)">
<path id="Vector" d="M18.77 24.4299L20.38 25.1499C21.41 25.6099 22.59 25.6099 23.63 25.1499L25.24 24.4299C26.68 23.7899 28.01 25.5299 27.01 26.7499L23.55 30.9799C22.7 32.0199 21.31 32.0199 20.45 30.9799L17 26.7499C15.99 25.5299 17.32 23.7899 18.77 24.4299Z" fill="#3A6FF8"/>
<path id="Vector_2" d="M18.57 21.6699C18.27 21.8899 18.31 22.3499 18.65 22.5199L21 23.6899C21.55 23.9699 22.44 23.9699 22.98 23.6899L25.33 22.5199C25.66 22.3499 25.7 21.8999 25.41 21.6699L22.3 19.3299C22.12 19.1999 21.88 19.1999 21.7 19.3299L18.57 21.6699Z" fill="#3A6FF8"/>
<path id="Vector_3" d="M27.8799 18.24L23.7099 13.04C23.6299 12.94 23.5399 12.85 23.4499 12.76C23.1899 12.51 22.8199 12.74 22.8199 13.1V17.4C22.8199 17.56 22.8899 17.71 23.0199 17.8L27.1699 20.92L27.3499 21.05C27.5299 21.18 27.7799 21.18 27.9299 21.02C28.6299 20.26 28.6199 19.16 27.8799 18.24Z" fill="#3A6FF8"/>
<path id="Vector_4" d="M16.11 18.3301L20.26 13.0501C20.34 12.9501 20.42 12.8601 20.51 12.7701C20.77 12.5201 21.14 12.7401 21.14 13.1101V17.4801C21.14 17.6401 21.07 17.7801 20.94 17.8801L16.81 21.0501L16.64 21.1801C16.46 21.3101 16.21 21.3101 16.05 21.1401C15.37 20.3701 15.38 19.2701 16.11 18.3301Z" fill="#3A6FF8"/>
</g>
</g>
</svg>
