<svg width="24" height="24" viewBox="0 0 24 24" fill="none" xmlns="http://www.w3.org/2000/svg">
<path id="Vector" d="M13.0055 12.2427L3.73625 13.7869C3.62969 13.8047 3.52968 13.8502 3.44629 13.9189C3.36291 13.9876 3.29908 14.077 3.26122 14.1782L0.065236 22.7396C-0.239964 23.5271 0.583338 24.2777 1.33895 23.8987L23.4906 12.8247C23.6437 12.748 23.7724 12.6302 23.8624 12.4845C23.9524 12.3388 24 12.171 24 11.9997C24 11.8285 23.9524 11.6606 23.8624 11.5149C23.7724 11.3692 23.6437 11.2514 23.4906 11.1747L1.33895 0.100722C0.583338 -0.277024 -0.239964 0.473546 0.065236 1.2598L3.26245 9.82122C3.30031 9.9224 3.36414 10.0118 3.44752 10.0805C3.53091 10.1492 3.63092 10.1947 3.73748 10.2125L13.0067 11.7567C13.0645 11.7659 13.1172 11.7955 13.1552 11.84C13.1932 11.8846 13.214 11.9412 13.214 11.9997C13.214 12.0583 13.1932 12.1149 13.1552 12.1594C13.1172 12.204 13.0645 12.2335 13.0067 12.2427H13.0055Z" fill="white"/>
</svg>
